<?xml version="1.0" encoding="UTF-8"?>
<svg version="1.1" xmlns="http://www.w3.org/2000/svg" width="1448" height="1086">
<path d="M0 0 C1.88958387 0.8019368 3.78020663 1.60143022 5.671875 2.3984375 C9.39492727 3.9712769 13.10948271 5.56200226 16.81835938 7.16796875 C20.43034301 8.72841829 24.05484532 10.25027743 27.69726562 11.73828125 C28.56216614 12.09369995 29.42706665 12.44911865 30.31817627 12.81530762 C31.93848988 13.47922524 33.56134382 14.136992 35.18719482 14.78723145 C42.60016721 17.83976488 46.67104979 21.34209959 50.25 28.5 C52.50848261 34.33441341 51.55787913 40.9038657 49.55273438 46.66040039 C46.4842242 53.34890149 42.0164205 59.31768355 37.875 65.375 C36.86834546 66.86350263 35.86257249 68.35260182 34.85766602 69.84228516 C32.42562734 73.44211336 29.98190893 77.03378413 27.53216553 80.62158203 C25.80538469 83.15137719 24.08464315 85.6852656 22.36328125 88.21875 C19.82659305 91.94365055 17.27495076 95.65798248 14.71679688 99.36816406 C13.18584209 101.59324681 11.66228288 103.82323765 10.140625 106.0546875 C4.26328388 114.67208558 -1.65900454 123.25621433 -7.625 131.8125 C-16.82554995 145.01233367 -25.87618909 158.31207941 -34.90625 171.62890625 C-42.54133395 182.88263355 -50.22425097 194.09883852 -58.00708008 205.25097656 C-62.16255818 211.20783149 -66.28322993 217.1867373 -70.375 223.1875 C-71.95466807 225.4976363 -73.53549241 227.80697376 -75.1171875 230.11572266 C-76.24347086 231.76035233 -77.36838825 233.40591799 -78.4921875 235.05224609 C-103.63083779 271.80654457 -129.26468383 287.85536886 -172.61273956 298.37007904 C-176.15913121 299.23314132 -179.70223283 300.10950428 -183.24560547 300.98486328 C-189.15808789 302.44427265 -195.07196103 303.89789623 -200.98681641 305.34765625 C-213.80429884 308.49070971 -226.60907189 311.68464106 -239.41243362 314.88465118 C-241.38560765 315.37765033 -243.3589105 315.87013089 -245.33224487 316.36248779 C-267.23882142 321.82950202 -289.10952502 327.43068088 -310.97143173 333.07336426 C-334.92042893 339.2543765 -358.89534532 345.31972487 -382.89672852 351.29394531 C-385.52495829 351.94834328 -388.15312805 352.60298167 -390.78125 353.2578125 C-391.44048399 353.42205719 -392.09971798 353.58630188 -392.77892876 353.75552368 C-404.76609002 356.74345143 -416.74359322 359.76904044 -428.71875 362.8046875 C-429.61154222 363.0309721 -430.50433445 363.2572567 -431.42418098 363.49039841 C-440.2538989 365.72857927 -449.08306248 367.9689309 -457.91125298 370.21312904 C-461.18676986 371.04551376 -464.46257562 371.87675773 -467.73843384 372.707798 C-469.2489828 373.09131883 -470.75939652 373.47537286 -472.26965332 373.86004257 C-476.39759509 374.91143027 -480.52778666 375.95288602 -484.66199875 376.97935486 C-486.1063989 377.33951744 -487.54994487 377.70311663 -488.99278641 378.06947327 C-491.25740158 378.64310999 -493.5248526 379.20407496 -495.79321289 379.76269531 C-496.47268447 379.93730663 -497.15215605 380.11191795 -497.85221767 380.29182053 C-505.51611557 382.14909012 -512.75618708 382.44267139 -519.75 378.5 C-526.4186554 372.78761874 -528.97866736 365.67788575 -531.75 357.5625 C-535.74628784 345.9 -540.80487951 337.68947115 -550 329.5 C-550.83688354 328.74046021 -550.83688354 328.74046021 -551.69067383 327.96557617 C-556.05695915 324.0357334 -560.57313018 320.30721029 -565.15625 316.6328125 C-567.67160139 314.56446632 -570.05330898 312.40479765 -572.4375 310.1875 C-594.72884459 290.06921101 -619.13829336 276.89656479 -649.7421875 278.01953125 C-674.57206828 279.60586255 -701.300519 290.84110506 -718.375 309.1875 C-731.97760817 325.73467276 -738.5762393 346.04681105 -737.625 367.4375 C-737.37667034 369.79663173 -737.08367807 372.15141977 -736.75 374.5 C-736.58242188 375.71042969 -736.41484375 376.92085937 -736.2421875 378.16796875 C-734.0237524 390.97967362 -727.98852363 402.35680472 -722.39042664 413.96858215 C-717.68695477 423.74877106 -713.34117186 433.69292804 -709.00244141 443.63916016 C-707.90535234 446.14514255 -706.78885604 448.64133714 -705.66796875 451.13671875 C-701.14425383 461.43941371 -700.13291606 469.38005239 -704.09375 480.015625 C-708.99966136 487.37449204 -716.45067123 491.25325617 -724.25 494.9375 C-726.05224071 495.81087325 -727.85431959 496.68458049 -729.65625 497.55859375 C-730.61297607 498.01782227 -731.56970215 498.47705078 -732.55541992 498.95019531 C-736.22622909 500.73103571 -739.87349266 502.55585937 -743.51953125 504.38671875 C-751.2923929 508.2857192 -759.10748237 512.09239843 -766.9375 515.875 C-769.82448131 517.27159313 -772.711083 518.66896995 -775.59765625 520.06640625 C-776.70980499 520.60466286 -776.70980499 520.60466286 -777.84442139 521.15379333 C-783.33608295 523.81259356 -788.82336994 526.48028991 -794.30859375 529.15234375 C-795.10013351 529.5379245 -795.89167328 529.92350525 -796.7071991 530.32077026 C-798.30147722 531.09742376 -799.89575112 531.87408592 -801.49002075 532.65075684 C-813.01471236 538.26452966 -824.54748488 543.8585605 -836.11987305 549.37353516 C-843.93198482 553.09995729 -851.72646012 556.86233774 -859.51599121 560.63568115 C-860.93012525 561.3206486 -862.3444236 562.00527697 -863.75891113 562.68951416 C-871.26798228 566.3226361 -878.75455562 569.99420923 -886.20703125 573.7421875 C-891.58221026 576.4421186 -896.97192685 579.06416058 -902.5 581.4375 C-903.15742187 581.72689453 -903.81484375 582.01628906 -904.4921875 582.31445312 C-912.7738448 585.9104359 -921.46375081 587.04595165 -930.38671875 584.8515625 C-938.36529631 581.59329523 -944.66153479 576.00623637 -948.09130859 568.10131836 C-948.57204834 566.90647827 -948.57204834 566.90647827 -949.0625 565.6875 C-949.43455566 564.81552979 -949.80661133 563.94355957 -950.18994141 563.04516602 C-951.39691905 560.20485173 -952.57426159 557.35336926 -953.75 554.5 C-954.94091306 551.66178205 -956.13805675 548.82625039 -957.3359375 545.9909668 C-958.20991592 543.92073041 -959.08091646 541.84923481 -959.94921875 539.77661133 C-963.0413125 532.42813648 -966.22791159 525.12570501 -969.46484375 517.83984375 C-969.88231873 516.89952805 -970.2997937 515.95921234 -970.72991943 514.99040222 C-972.82146474 510.28277509 -974.91923074 505.57803367 -977.02490234 500.87670898 C-992.72569384 465.69283447 -992.72569384 465.69283447 -988.6484375 449.2265625 C-988.4266835 448.31490829 -988.2049295 447.40325409 -987.97645569 446.463974 C-985.42709333 436.05483198 -982.76363531 425.67463773 -980.03833008 415.31030273 C-979.46441007 413.11952574 -978.89551023 410.92742827 -978.33129883 408.73413086 C-977.50133139 405.5085918 -976.65667484 402.28722366 -975.80859375 399.06640625 C-975.56056503 398.09143692 -975.31253632 397.11646759 -975.05699158 396.11195374 C-973.21691845 389.22358299 -970.91849536 383.98669557 -965.375 379.25 C-964.83101562 378.77046875 -964.28703125 378.2909375 -963.7265625 377.796875 C-959.26189305 374.86748714 -954.11769322 374.12474272 -948.91629028 373.38632202 C-948.2537118 373.29069147 -947.59113333 373.19506091 -946.90847671 373.09653246 C-944.70289195 372.7795765 -942.49626541 372.47060452 -940.28955078 372.16162109 C-938.70241031 371.93520931 -937.11534025 371.70830347 -935.52833557 371.48094177 C-931.22994324 370.86655831 -926.93060055 370.25907821 -922.63105249 369.652843 C-918.13414996 369.01758063 -913.63815494 368.37595968 -909.14205933 367.73501587 C-900.63243613 366.52290516 -892.12201346 365.31650601 -883.61128795 364.11216223 C-873.9202557 362.74051048 -864.2301331 361.36248559 -854.54008126 359.98392749 C-834.61105743 357.14886453 -814.68090614 354.3217976 -794.75 351.5 C-794.27302011 350.24891167 -793.79805698 348.99705437 -793.32391357 347.74488831 C-793.05919628 347.0478457 -792.79447899 346.35080309 -792.52173996 345.63263798 C-791.32015849 342.31216942 -790.37683259 338.93377388 -789.453125 335.52734375 C-789.25523376 334.80059952 -789.05734253 334.07385529 -788.85345459 333.3250885 C-788.44118398 331.80222534 -788.03123382 330.2787322 -787.62353516 328.75463867 C-786.99969526 326.43636754 -786.35739724 324.12369042 -785.71484375 321.81054688 C-785.3139537 320.32062158 -784.91417571 318.83039652 -784.515625 317.33984375 C-784.32301086 316.65736069 -784.13039673 315.97487762 -783.9319458 315.27171326 C-781.62295119 306.41422834 -784.6664793 299.5142361 -787.88671875 291.3515625 C-788.31441559 290.25001328 -788.74211243 289.14846405 -789.18276978 288.01353455 C-790.35124362 285.00750317 -791.52616405 282.00408338 -792.70334244 279.0014534 C-793.93742196 275.84723579 -795.16106385 272.68897724 -796.38549805 269.53100586 C-800.80561379 258.1392588 -805.2525446 246.75809962 -809.72149563 235.38542557 C-811.77458778 230.15946684 -813.8194485 224.93032968 -815.85913181 219.69912338 C-817.54409745 215.38020599 -819.24752456 211.06883293 -820.95385742 206.75830078 C-821.84108387 204.48629606 -822.72759626 202.21401232 -823.61328125 199.94140625 C-824.01954742 198.92707016 -824.4258136 197.91273407 -824.84439087 196.86766052 C-828.29886407 187.92244996 -830.39339628 178.73326454 -826.75 169.5 C-822.22540383 161.61347479 -816.19656086 157.7443169 -807.6328125 154.8359375 C-806.61068161 154.48550385 -806.61068161 154.48550385 -805.56790161 154.12799072 C-803.34001155 153.36755115 -801.10787662 152.62065886 -798.875 151.875 C-797.3081893 151.345774 -795.74145866 150.81631088 -794.17480469 150.28662109 C-703.76813574 119.84560569 -619.72137567 120.78588039 -524.75 154.5 C-524.0902417 154.7358783 -523.4304834 154.97175659 -522.75073242 155.21478271 C-497.21777839 164.37067744 -472.52673065 175.30109079 -447.9664917 186.76177979 C-386.37076109 215.49927689 -327.49159216 238.51348213 -260.44848633 214.51391602 C-257.73814361 213.49554514 -255.07326873 212.39447484 -252.40234375 211.27734375 C-245.70925434 208.57066741 -239.86845245 208.63092309 -232.9375 210.5625 C-223.84646082 216.08842578 -220.84699978 225.48970282 -217.0625 234.875 C-216.49007462 236.26088904 -215.91651435 237.6463099 -215.34179688 239.03125 C-212.55975849 245.77688515 -209.93571203 252.53352561 -207.75 259.5 C-198.73280911 256.21197432 -189.73173854 252.88370576 -180.75 249.5 C-179.50065674 249.02989502 -179.50065674 249.02989502 -178.22607422 248.55029297 C-163.85402924 243.05951169 -157.57414699 235.29916405 -149.32861328 222.85644531 C-146.47006933 218.58940754 -143.51297212 214.39125256 -140.5625 210.1875 C-139.96856445 209.33937744 -139.37462891 208.49125488 -138.76269531 207.61743164 C-134.49189747 201.52862686 -130.16849676 195.48280927 -125.75 189.5 C-129.3716729 186.45833431 -133.09718977 184.05303866 -137.1875 181.6875 C-144.13802166 177.53084417 -149.17613233 173.34743654 -151.75 165.5 C-153.40589269 150.808766 -147.45134068 141.50556432 -139.42382812 129.92480469 C-137.50143281 127.13991113 -135.60134831 124.34048694 -133.703125 121.5390625 C-127.11687486 111.82013773 -120.5042302 102.11960596 -113.84301758 92.4519043 C-107.44290752 83.15910266 -101.10226655 73.82553303 -94.75 64.5 C-78.84980056 41.15749164 -78.84980056 41.15749164 -72.95874023 32.63110352 C-70.28354201 28.75342468 -67.64203701 24.85495099 -65.01953125 20.94140625 C-64.3646875 19.96880859 -63.70984375 18.99621094 -63.03515625 17.99414062 C-61.76018299 16.09935364 -60.49028659 14.20113619 -59.2265625 12.29882812 C-42.14157446 -13.03216825 -26.11856229 -11.39346561 0 0 Z M-34.75 14.5 C-36.54485599 16.55195473 -36.54485599 16.55195473 -38.05859375 18.9453125 C-38.65526855 19.83508789 -39.25194336 20.72486328 -39.86669922 21.64160156 C-40.48818848 22.58487305 -41.10967773 23.52814453 -41.75 24.5 C-43.05144428 26.41538288 -44.35488181 28.3294127 -45.66015625 30.2421875 C-47.04455125 32.28626844 -48.42865552 34.33054631 -49.8125 36.375 C-55.10844456 44.1871206 -60.44452925 51.96797285 -65.875 59.6875 C-72.87705982 69.64853953 -79.74718525 79.69565641 -86.57958984 89.77368164 C-87.85221936 91.65077036 -89.12533322 93.52753013 -90.3984375 95.40429688 C-100.28025114 109.97471161 -110.14816917 124.55473569 -119.9375 139.1875 C-120.5780835 140.14188965 -121.21866699 141.0962793 -121.87866211 142.07958984 C-123.52107628 144.54153037 -125.14159723 147.01575027 -126.75 149.5 C-127.1929541 150.16467285 -127.6359082 150.8293457 -128.09228516 151.51416016 C-129.70141922 154.06669791 -130.71146784 156.11237799 -131.01171875 159.1328125 C-128.95005782 163.00082031 -125.35977222 164.39902958 -121.5625 166.375 C-114.67484463 169.98030298 -108.32582184 173.77253447 -105.75 181.5 C-105.57692476 183.89184302 -105.48319264 186.28983859 -105.4375 188.6875 C-105.38142578 190.59595703 -105.38142578 190.59595703 -105.32421875 192.54296875 C-106.12261346 199.96291221 -110.1874717 205.45085505 -114.625 211.25 C-119.13895304 217.27505513 -123.50974341 223.38488737 -127.8125 229.5625 C-128.40675781 230.41191162 -129.00101563 231.26132324 -129.61328125 232.13647461 C-132.28727212 235.9593539 -134.9507024 239.78824659 -137.58203125 243.640625 C-148.75155801 259.87994826 -162.32747456 265.37062015 -180.05200195 272.65991211 C-185.07197181 274.73464728 -189.91658829 277.02005838 -194.75 279.5 C-190.69706411 281.11373538 -187.05764837 279.86967506 -183.01171875 278.83984375 C-181.87498466 278.55941978 -181.87498466 278.55941978 -180.71528625 278.27333069 C-179.10614098 277.87350096 -177.49818264 277.46886831 -175.89135742 277.05981445 C-173.48761388 276.45020921 -171.07943416 275.86171602 -168.66992188 275.27539062 C-135.88075393 267.13508522 -115.06407504 250.76743803 -96.39648438 222.93408203 C-93.87819245 219.21116233 -91.28809877 215.54070354 -88.6875 211.875 C-87.94898804 210.83230957 -87.94898804 210.83230957 -87.19555664 209.76855469 C-86.20586036 208.37190932 -85.21570971 206.97558582 -84.22509766 205.57958984 C-80.24816102 199.97291221 -76.286589 194.35536934 -72.32714844 188.73632812 C-71.25862207 187.22120406 -70.1889243 185.70690556 -69.11816406 184.19335938 C-61.44660053 173.34658361 -53.98562321 162.38263662 -46.65478516 151.30273438 C-42.0121558 144.31567305 -37.19789353 137.48372504 -32.24829102 130.71191406 C-28.69527106 125.8410247 -25.28496621 120.90300738 -21.96801758 115.86914062 C-17.56005272 109.18417373 -13.06136215 102.56142511 -8.5625 95.9375 C-7.73013618 94.71110504 -6.89777942 93.4847053 -6.06542969 92.25830078 C-2.26879021 86.66639149 1.53439474 81.07916219 5.35546875 75.50390625 C11.52555793 66.50101378 17.66350233 57.47645673 23.6875 48.375 C24.25001465 47.53904297 24.8125293 46.70308594 25.39208984 45.84179688 C25.90078613 45.06642578 26.40948242 44.29105469 26.93359375 43.4921875 C27.38275146 42.81526855 27.83190918 42.13834961 28.29467773 41.44091797 C29.54440477 39.26240854 29.54440477 39.26240854 29.25 35.5 C14.77942661 29.31202481 0.26594115 23.24132131 -14.3125 17.3125 C-15.02752686 17.0210611 -15.74255371 16.72962219 -16.47924805 16.42935181 C-18.50747819 15.60320124 -20.53672739 14.77961519 -22.56640625 13.95703125 C-23.73631104 13.48241455 -24.90621582 13.00779785 -26.11157227 12.51879883 C-30.17416274 10.95007578 -31.11376264 12.05525063 -34.75 14.5 Z M-704.9375 147.75 C-706.31905273 147.95568604 -706.31905273 147.95568604 -707.72851562 148.16552734 C-733.33680498 152.13294622 -758.07884209 160.86222616 -782.63113403 168.9331665 C-784.54028139 169.55992946 -786.45050045 170.18343752 -788.36178589 170.8036499 C-791.05216397 171.67867592 -793.73749667 172.56770057 -796.421875 173.4609375 C-797.23505692 173.72314087 -798.04823883 173.98534424 -798.88606262 174.25549316 C-803.58082254 175.79644326 -803.58082254 175.79644326 -806.75 179.5 C-806.39913039 184.70392507 -804.4537106 189.38406121 -802.6015625 194.20703125 C-802.27714172 195.06456497 -801.95272095 195.92209869 -801.61846924 196.80561829 C-800.54291942 199.6434105 -799.45910988 202.47796804 -798.375 205.3125 C-797.61703998 207.30635994 -796.85939592 209.30034002 -796.10205078 211.29443359 C-789.57251031 228.45762224 -782.93610343 245.58001207 -776.26025391 262.68676758 C-772.69615396 271.82787727 -769.16278721 280.97791466 -765.7578125 290.1796875 C-765.46639374 290.96449493 -765.17497498 291.74930237 -764.87472534 292.55789185 C-760.841524 303.53884662 -761.27401391 312.20056119 -764.19921875 323.4765625 C-764.45371292 324.48665375 -764.70820709 325.496745 -764.97041321 326.53744507 C-765.50842489 328.65831728 -766.05247672 330.77766564 -766.60229492 332.89550781 C-767.43581263 336.11847545 -768.24145199 339.34755253 -769.04492188 342.578125 C-769.57385522 344.64886366 -770.10440032 346.71919144 -770.63671875 348.7890625 C-770.87339767 349.7444693 -771.1100766 350.6998761 -771.35392761 351.68423462 C-773.27289178 358.94896237 -775.41210081 365.11037849 -781.67909241 369.59695435 C-786.67464277 372.29094379 -792.06917059 372.79368421 -797.62744141 373.52929688 C-798.77333551 373.69290459 -799.91922962 373.8565123 -801.09984779 374.02507782 C-803.48355827 374.36377954 -805.86818988 374.69605756 -808.25366974 375.02206421 C-811.50721262 375.46681184 -814.75785567 375.92784314 -818.00799561 376.39672852 C-824.23980066 377.29313379 -830.47512588 378.16322754 -836.7109375 379.03125 C-839.00568948 379.352087 -841.30041752 379.67309536 -843.59512329 379.9942627 C-849.56464605 380.8293572 -855.53445016 381.66242161 -861.5043335 382.49493408 C-867.51084792 383.33281454 -873.51713953 384.17228832 -879.5234375 385.01171875 C-880.69443119 385.17529877 -881.86542488 385.33887878 -883.07190323 385.50741577 C-888.82096678 386.3106819 -894.56983465 387.11530312 -900.31829834 387.92285156 C-902.49571918 388.22857518 -904.67314819 388.53424062 -906.85058594 388.83984375 C-907.89014309 388.98575958 -908.92970024 389.13167542 -910.00075912 389.28201294 C-915.32378286 390.02719374 -920.64806879 390.76012679 -925.97617912 391.46804047 C-928.02618335 391.74063641 -930.07562166 392.01711212 -932.12490845 392.29504395 C-934.41506044 392.6042035 -936.70630126 392.90547737 -938.99887085 393.19616699 C-944.06087375 393.88749863 -948.44154086 394.54523121 -952.75 397.5 C-954.03631414 399.46057263 -954.03631414 399.46057263 -954.55078125 401.8125 C-954.80142334 402.70638428 -955.05206543 403.60026855 -955.31030273 404.52124023 C-955.55852783 405.50423096 -955.80675293 406.48722168 -956.0625 407.5 C-956.34101807 408.5300415 -956.61953613 409.56008301 -956.90649414 410.62133789 C-957.697332 413.5720939 -958.46405843 416.52818311 -959.22546387 419.4866333 C-959.98510719 422.40242972 -960.77490359 425.30986401 -961.56288147 428.21810913 C-962.40802473 431.34579373 -963.24066661 434.47671021 -964.06991577 437.60864258 C-964.478588 439.14971066 -964.8898654 440.69009047 -965.30386353 442.22973633 C-969.0284746 456.15107241 -969.9277773 464.23518801 -963.8125 477.625 C-962.99838766 479.46469533 -962.18431151 481.30440694 -961.37130737 483.14459229 C-960.47958731 485.1564292 -959.5804428 487.16482611 -958.68017578 489.17285156 C-955.51234365 496.25398374 -952.43622745 503.37544516 -949.34335327 510.48953247 C-948.25157322 512.99638771 -947.1554065 515.50127926 -946.05786133 518.00561523 C-942.70127909 525.67061541 -939.37617576 533.34416489 -936.171875 541.07421875 C-935.62581288 542.38288004 -935.0795939 543.6914759 -934.53320312 545 C-933.54073764 547.38697432 -932.5595028 549.77866227 -931.59179688 552.17578125 C-931.15416016 553.22507812 -930.71652344 554.274375 -930.265625 555.35546875 C-929.89727539 556.25934326 -929.52892578 557.16321777 -929.14941406 558.09448242 C-927.44056655 561.03189947 -925.5421886 562.59187306 -922.75 564.5 C-916.61665572 565.80844678 -911.26323468 562.1800089 -905.9375 559.5 C-903.70320657 558.40087584 -901.46882693 557.3019269 -899.234375 556.203125 C-898.0226916 555.60240483 -896.81110562 555.00148814 -895.59960938 554.40039062 C-891.52158744 552.38162516 -887.4262304 550.39948405 -883.328125 548.421875 C-882.61155228 548.07588257 -881.89497955 547.72989014 -881.1566925 547.37341309 C-879.71049519 546.67515852 -878.26427233 545.97695684 -876.81802368 545.27880859 C-868.1263911 541.08170608 -859.44717044 536.86412351 -850.8203125 532.53515625 C-842.47686616 528.34845119 -834.08732771 524.25966334 -825.6875 520.1875 C-824.13557835 519.4343284 -822.58365779 518.68115454 -821.03173828 517.92797852 C-812.74113134 513.90665068 -804.44214939 509.90370421 -796.125 505.9375 C-781.29768471 498.8652787 -766.51068424 491.71019206 -751.75 484.5 C-751.09022156 484.17783508 -750.43044312 483.85567017 -749.75067139 483.52374268 C-745.45287387 481.42347784 -741.16227738 479.30915809 -736.875 477.1875 C-735.78791748 476.65463379 -734.70083496 476.12176758 -733.58081055 475.57275391 C-732.58734619 475.0782373 -731.59388184 474.5837207 -730.5703125 474.07421875 C-729.70680176 473.64713623 -728.84329102 473.22005371 -727.95361328 472.7800293 C-724.94928418 471.07270012 -724.94928418 471.07270012 -722.75 468.5 C-722.93181738 463.39615955 -725.0698201 459.13101107 -727.21484375 454.59375 C-727.56396317 453.84018723 -727.91308258 453.08662445 -728.27278137 452.31022644 C-729.01886312 450.70210393 -729.76823866 449.09550611 -730.52062988 447.49032593 C-731.6964178 444.98096769 -732.86264575 442.46736706 -734.02636719 439.95239258 C-736.82030718 433.91901139 -739.62607638 427.89119019 -742.45166016 421.87255859 C-757.63235783 389.51489397 -763.51084278 356.69076019 -751.2578125 322.1328125 C-739.90007039 294.76830431 -717.83859747 277.64172038 -691.40625 266.03125 C-664.00898335 254.9095873 -632.59701761 252.76804784 -604.77050781 263.66699219 C-593.10383588 268.62635706 -582.41519457 274.24524089 -572.75 282.5 C-570.93752945 283.95836994 -569.12502903 285.41670275 -567.3125 286.875 C-562.70232401 290.68254103 -558.13721465 294.54265201 -553.58398438 298.41796875 C-550.20188458 301.29175296 -546.77545564 304.09853336 -543.3125 306.875 C-525.34744208 321.60002548 -516.04724468 335.14204998 -508.609375 357.48828125 C-507.92970287 359.67966387 -507.92970287 359.67966387 -505.75 360.5 C-503.44485525 360.14597154 -503.44485525 360.14597154 -500.7746582 359.43041992 C-499.71979218 359.16738571 -498.66492615 358.9043515 -497.57809448 358.63334656 C-496.41408112 358.33539688 -495.25006775 358.0374472 -494.05078125 357.73046875 C-492.82714874 357.42313309 -491.60351624 357.11579742 -490.34280396 356.79914856 C-486.95950628 355.94915359 -483.57850496 355.09032445 -480.19782639 354.22998047 C-476.59872446 353.31562728 -472.99760508 352.40928702 -469.39672852 351.50195312 C-462.50917936 349.76506096 -455.62356327 348.02062775 -448.73869801 346.27313042 C-443.41786917 344.9227138 -438.09640772 343.57482248 -432.77441406 342.22900391 C-432.04155843 342.04367411 -431.30870279 341.85834431 -430.55363941 341.66739845 C-429.07752645 341.29411175 -427.60141313 340.92082645 -426.12529945 340.54754257 C-411.32116195 336.80331177 -396.52006941 333.04714079 -381.72002506 329.28676796 C-380.99305644 329.10206129 -380.26608782 328.91735462 -379.51708984 328.72705078 C-378.7916545 328.54273184 -378.06621916 328.3584129 -377.31880093 328.16850853 C-370.08339364 326.33031083 -362.84729999 324.4948219 -355.61115456 322.65953255 C-320.59116156 313.78039015 -320.59116156 313.78039015 -285.59570312 304.80517578 C-277.10909295 302.61623177 -268.61827378 300.44420465 -260.125 298.28125 C-258.44437469 297.85322334 -258.44437469 297.85322334 -256.72979736 297.41654968 C-251.19351238 296.00684063 -245.65696908 294.59815449 -240.12011719 293.19067383 C-226.31634481 289.67909429 -212.52770538 286.11250682 -198.75 282.5 C-198.75 282.17 -198.75 281.84 -198.75 281.5 C-199.595625 281.47421875 -200.44125 281.4484375 -201.3125 281.421875 C-209.89196795 280.9929016 -216.16900811 280.2980217 -222.19921875 273.90234375 C-225.19227553 270.1816587 -227.10045612 266.07884817 -229.0625 261.75 C-229.44277344 260.92959229 -229.82304688 260.10918457 -230.21484375 259.26391602 C-233.62780651 251.86657352 -236.94010143 244.42256104 -240.21875 236.96484375 C-241.0302436 235.12863246 -241.85220339 233.29559322 -242.75 231.5 C-247.40149384 232.09200831 -251.20251083 233.39730467 -255.5 235.25 C-264.05830519 238.7881599 -272.74312696 241.36955049 -281.75 243.5 C-282.43352539 243.66661133 -283.11705078 243.83322266 -283.82128906 244.00488281 C-342.22075944 257.57243654 -400.75081369 232.41454909 -452.41656494 208.07693481 C-516.68612405 177.80360635 -580.28162746 156.37986888 -651.25 148.625 C-652.22721008 148.51550018 -653.20442017 148.40600037 -654.21124268 148.29318237 C-671.05392475 146.42806268 -688.10187645 145.10905274 -704.9375 147.75 Z M-198.75 280.5 C-194.75 281.5 -194.75 281.5 -194.75 281.5 Z " fill="#131312" transform="translate(1199.75,250.5)"/>
<path d="M0 0 C0.66 0.33 1.32 0.66 2 1 C-1.18473883 4.18473883 -5.49852216 5.56769888 -9.58984375 7.34570312 C-13.08732391 8.917183 -14.82645473 9.73968209 -17 13 C-18.9453125 13.29296875 -18.9453125 13.29296875 -21.125 13.1875 C-23.043125 13.0946875 -23.043125 13.0946875 -25 13 C-20.5091488 9.43788844 -15.52758 7.20163081 -10.375 4.75 C-9.40820312 4.27820313 -8.44140625 3.80640625 -7.4453125 3.3203125 C-6.52234375 2.87945313 -5.599375 2.43859375 -4.6484375 1.984375 C-3.80458496 1.57928711 -2.96073242 1.17419922 -2.09130859 0.75683594 C-1.40117676 0.50708008 -0.71104492 0.25732422 0 0 Z " fill="#7C7A76" transform="translate(426,745)"/>
<path d="M0 0 C-0.33 0.99 -0.66 1.98 -1 3 C-1.60585938 3.09796875 -2.21171875 3.1959375 -2.8359375 3.296875 C-9.98511247 4.57272776 -16.50061801 6.750309 -23 10 C-24.67654729 9.72057545 -26.34608154 9.39171753 -28 9 C-23.34272537 6.54894405 -18.41971989 5.03013314 -13.4375 3.375 C-11.99987305 2.88773437 -11.99987305 2.88773437 -10.53320312 2.390625 C-9.15358398 1.93042969 -9.15358398 1.93042969 -7.74609375 1.4609375 C-6.90747803 1.18040527 -6.0688623 0.89987305 -5.20483398 0.61083984 C-3 0 -3 0 0 0 Z " fill="#86847F" transform="translate(448,388)"/>
<path d="M0 0 C0.66 0.33 1.32 0.66 2 1 C0.46680021 2.75742269 -1.07697705 4.50562015 -2.625 6.25 C-3.91277344 7.71179688 -3.91277344 7.71179688 -5.2265625 9.203125 C-8.03398971 12.03427695 -10.62788983 13.92333391 -14 16 C-12.34136495 11.67495164 -9.128959 8.90581175 -5.875 5.75 C-5.31167969 5.19570313 -4.74835938 4.64140625 -4.16796875 4.0703125 C-2.78313972 2.70895515 -1.39216796 1.35385141 0 0 Z " fill="#8B8A85" transform="translate(476,534)"/>
<path d="M0 0 C2.66100281 3.99150421 3.15561879 6.73820925 3.1875 11.4375 C3.20167969 12.38496094 3.21585937 13.33242188 3.23046875 14.30859375 C2.99614518 17.04501644 2.39701383 18.66428123 1 21 C0.06145994 13.96094956 -0.10808032 7.09727428 0 0 Z " fill="#686563" transform="translate(495,706)"/>
<path d="M0 0 C0 3.60505628 -1.17243984 4.97771477 -3.50390625 7.6328125 C-5.80461839 9.73529095 -7.97321606 10.42040307 -11 11 C-13.18359375 10.53515625 -13.18359375 10.53515625 -15 10 C-14.33613281 9.69707031 -13.67226562 9.39414062 -12.98828125 9.08203125 C-7.77378998 6.60800254 -3.76754403 4.39546803 0 0 Z " fill="#84837E" transform="translate(1041,487)"/>
<path d="M0 0 C0 5.36139277 -1.32571774 8.00151636 -5 12 C-5.99 12.33 -6.98 12.66 -8 13 C-6.40956621 7.91061189 -3.2553049 4.12543357 0 0 Z " fill="#817F7B" transform="translate(1119,450)"/>
<path d="M0 0 C1.02867187 0.19142578 1.02867187 0.19142578 2.078125 0.38671875 C5.48102452 0.95590878 8.80626879 0.8114952 12.25 0.75 C12.25 1.08 12.25 1.41 12.25 1.75 C10.04248152 2.08868777 7.83394089 2.42071689 5.625 2.75 C4.39523437 2.935625 3.16546875 3.12125 1.8984375 3.3125 C-1.3666027 3.70402516 -4.46712451 3.83080924 -7.75 3.75 C-5.22599651 0.2794952 -4.39278004 -0.292852 0 0 Z " fill="#686461" transform="translate(303.75,635.25)"/>
<path d="M0 0 C0.66 0.99 1.32 1.98 2 3 C1.38125 3.391875 0.7625 3.78375 0.125 4.1875 C-2.17957732 5.86386317 -2.17957732 5.86386317 -3 8.5625 C-4 11 -4 11 -6.125 12.3125 C-7.053125 12.6528125 -7.053125 12.6528125 -8 13 C-6.40956621 7.91061189 -3.2553049 4.12543357 0 0 Z " fill="#787672" transform="translate(1131,433)"/>
<path d="M0 0 C0.75502007 2.59572595 1.03050446 3.86103524 0.4375 6.5625 C-1.46317262 9.78537966 -3.60228994 10.59659802 -7 12 C-5.44298069 7.32894208 -2.91552627 3.91294315 0 0 Z " fill="#767470" transform="translate(1118,296)"/>
<path d="M0 0 C0.66 1.32 1.32 2.64 2 4 C-2.625 9.875 -2.625 9.875 -6 11 C-4.54955729 6.89041233 -2.48889248 3.56741255 0 0 Z " fill="#6D6B68" transform="translate(1223,298)"/>
<path d="M0 0 C0.58203125 1.859375 0.58203125 1.859375 1 4 C-0.3125 6.25 -0.3125 6.25 -2 8 C-2.66 8 -3.32 8 -4 8 C-4.33 9.65 -4.66 11.3 -5 13 C-5.66 13 -6.32 13 -7 13 C-5.58832253 7.73829306 -3.25149768 4.27828642 0 0 Z " fill="#817F79" transform="translate(458,554)"/>
<path d="M0 0 C0.33 1.32 0.66 2.64 1 4 C0.01 4.33 -0.98 4.66 -2 5 C-2.0825 5.78375 -2.165 6.5675 -2.25 7.375 C-3 10 -3 10 -5.0625 11.3125 C-6.0215625 11.6528125 -6.0215625 11.6528125 -7 12 C-5.44298069 7.32894208 -2.91552627 3.91294315 0 0 Z " fill="#7C7A75" transform="translate(1129,280)"/>
<path d="M0 0 C-0.66 0.66 -1.32 1.32 -2 2 C-3.66666667 2 -5.33333333 2 -7 2 C-7.99 2.66 -8.98 3.32 -10 4 C-13.1875 3.625 -13.1875 3.625 -16 3 C-16 2.67 -16 2.34 -16 2 C-14.08654673 1.46748234 -12.1690705 0.94940517 -10.25 0.4375 C-9.18265625 0.14746094 -8.1153125 -0.14257812 -7.015625 -0.44140625 C-4.15664073 -0.97098494 -2.68402617 -0.98370862 0 0 Z " fill="#666560" transform="translate(884,564)"/>
<path d="M0 0 C-3.212231 2.14148733 -5.2476976 2.44114645 -9 3 C-9.99 3.495 -9.99 3.495 -11 4 C-13.125 3.0625 -13.125 3.0625 -15 2 C-13.06524329 1.46906676 -11.12706845 0.95057683 -9.1875 0.4375 C-8.10855469 0.14746094 -7.02960937 -0.14257812 -5.91796875 -0.44140625 C-3 -1 -3 -1 0 0 Z " fill="#7C7A76" transform="translate(1001,534)"/>
<path d="M0 0 C0.66 0.33 1.32 0.66 2 1 C-3.0940919 7.86214442 -3.0940919 7.86214442 -6.875 8.4375 C-7.57625 8.293125 -8.2775 8.14875 -9 8 C-6.17493137 5.0702992 -3.21203935 2.49825283 0 0 Z " fill="#84837E" transform="translate(1078,503)"/>
<path d="M0 0 C-0.99 1.485 -0.99 1.485 -2 3 C-3.9453125 3.29296875 -3.9453125 3.29296875 -6.125 3.1875 C-7.40375 3.125625 -8.6825 3.06375 -10 3 C-4.375 -1.3125 -4.375 -1.3125 0 0 Z " fill="#4F4D4B" transform="translate(411,755)"/>
<path d="M0 0 C-4.97504047 3.24900602 -7.88225104 4.49940808 -14 4 C-11.58592302 2.39061535 -9.65955563 1.34509262 -7 0.3125 C-5.9790625 -0.09548828 -5.9790625 -0.09548828 -4.9375 -0.51171875 C-3 -1 -3 -1 0 0 Z " fill="#8C8A84" transform="translate(414,400)"/>
<path d="M0 0 C0 3.99904969 -1.72586967 5.80200422 -4 9 C-4.98120464 5.94736336 -4.98120464 4.05263664 -4 1 C-2.68 0.67 -1.36 0.34 0 0 Z " fill="#72706C" transform="translate(1132,311)"/>
<path d="M0 0 C0.33 0 0.66 0 1 0 C1.3125 3.1875 1.3125 3.1875 1 7 C-1.5 9.9375 -1.5 9.9375 -4 12 C-4 8.37968443 -2.8569494 7.04539702 -1 4 C-0.30420546 1.80869466 -0.30420546 1.80869466 0 0 Z " fill="#898782" transform="translate(1229,286)"/>
<path d="M0 0 C0.66 0.33 1.32 0.66 2 1 C1.07038578 2.15224028 0.1309875 3.29659176 -0.8125 4.4375 C-1.59560547 5.39462891 -1.59560547 5.39462891 -2.39453125 6.37109375 C-4 8 -4 8 -7 9 C-5.44499019 5.18315774 -2.96404505 2.80804268 0 0 Z " fill="#72716D" transform="translate(236,628)"/>
<path d="M0 0 C0 3.29223784 -0.50518132 5.08510357 -2 8 C-4.125 9.3125 -4.125 9.3125 -6 10 C-4.6302836 6.00499382 -2.74277578 3.19990508 0 0 Z " fill="#7D7B77" transform="translate(1182,359)"/>
<path d="M0 0 C0.66 0.99 1.32 1.98 2 3 C-2.75 7.875 -2.75 7.875 -5 9 C-3.7508258 5.54074837 -2.32472205 2.85306797 0 0 Z " fill="#777571" transform="translate(1077,356)"/>
<path d="M0 0 C1 2 1 2 0.375 4.4375 C-1.27706844 7.51635481 -2.91798591 8.45899296 -6 10 C-4.34832443 6.4213696 -2.21713508 3.25179812 0 0 Z " fill="#7F7D78" transform="translate(1110,308)"/>
<path d="M0 0 C0.33 0 0.66 0 1 0 C1.33 2.31 1.66 4.62 2 7 C1.34 7 0.68 7 0 7 C0.33 8.32 0.66 9.64 1 11 C0.01 11.33 -0.98 11.66 -2 12 C-1 3.42857143 -1 3.42857143 0 0 Z " fill="#686663" transform="translate(223,654)"/>
<path d="M0 0 C0.8125 1.6875 0.8125 1.6875 1 4 C-1.4375 6.75 -1.4375 6.75 -4 9 C-4 5.00095031 -2.27413033 3.19799578 0 0 Z " fill="#757470" transform="translate(1144,414)"/>
<path d="M0 0 C3.82097239 0.53069061 6.06171403 1.49701566 9 4 C6.69 4.33 4.38 4.66 2 5 C2 4.01 2 3.02 2 2 C1.34 1.34 0.68 0.68 0 0 Z " fill="#63615E" transform="translate(729,428)"/>
<path d="M0 0 C0 0.66 0 1.32 0 2 C-3.96 3.98 -3.96 3.98 -8 6 C-8.66 5.34 -9.32 4.68 -10 4 C-8.71086513 3.32845067 -7.41859796 2.66291141 -6.125 2 C-5.40570313 1.62875 -4.68640625 1.2575 -3.9453125 0.875 C-2 0 -2 0 0 0 Z " fill="#6C6B66" transform="translate(308,803)"/>
<path d="M0 0 C1.46534385 3.80989402 0.55203911 6.3241179 -1 10 C-1.99 10.495 -1.99 10.495 -3 11 C-2.44894091 7.0507432 -1.61064629 3.65079826 0 0 Z " fill="#76746F" transform="translate(450,567)"/>
<path d="M0 0 C0.66 0.66 1.32 1.32 2 2 C0.35 3.65 -1.3 5.3 -3 7 C-3.99 6.67 -4.98 6.34 -6 6 C-4.02 4.02 -2.04 2.04 0 0 Z " fill="#585754" transform="translate(1086,496)"/>
<path d="M0 0 C1 2 1 2 0.3125 4.5 C-1.15567038 7.29651501 -2.09303901 7.93411431 -5 9 C-3.7508258 5.54074837 -2.32472205 2.85306797 0 0 Z " fill="#878682" transform="translate(1144,258)"/>
<path d="M0 0 C0.91004613 3.07140568 1.33694826 5.79899154 1 9 C0.01 9.66 -0.98 10.32 -2 11 C-1.125 3.375 -1.125 3.375 0 0 Z " fill="#6A6864" transform="translate(412,580)"/>
<path d="M0 0 C1 2 1 2 0.3125 4.5 C-1.15567038 7.29651501 -2.09303901 7.93411431 -5 9 C-3.7508258 5.54074837 -2.32472205 2.85306797 0 0 Z " fill="#9B9A95" transform="translate(1107,467)"/>
<path d="M0 0 C-3.63423209 2.32590854 -6.77088331 2.16265833 -11 2 C-6.98764085 -0.6749061 -4.6342454 -1.48957888 0 0 Z " fill="#6D6B68" transform="translate(533,510)"/>
</svg>
